<?xml version="1.0" encoding="utf-8"?>
<COLLADA xmlns="http://www.collada.org/2005/11/COLLADASchema" version="1.4.1">
  <asset><unit name="meter" meter="1"/><up_axis>Z_UP</up_axis></asset>
  <library_images><image id="course_image"><init_from>course.png</init_from></image></library_images>
  <library_effects><effect id="course_effect"><profile_COMMON>
    <newparam sid="course_surface"><surface type="2D"><init_from>course_image</init_from></surface></newparam>
    <newparam sid="course_sampler"><sampler2D><source>course_surface</source></sampler2D></newparam>
    <technique sid="common"><lambert><diffuse><texture texture="course_sampler" texcoord="UVMap"/></diffuse></lambert></technique>
  </profile_COMMON></effect></library_effects>
  <library_materials><material id="course_material"><instance_effect url="#course_effect"/></material></library_materials>
  <library_geometries><geometry id="course"><mesh>
    <source id="positions"><float_array id="positions-array" count="216">-0.1489407895 1.1747003444 0.0000000000 -0.1220000000 1.1747003444 0.0000000000 0.2830000000 1.1747003444 0.0000000000 0.9580000000 1.1747003444 0.0000000000 1.4630000000 1.1747003444 0.0000000000 1.6830000000 1.1747003444 0.0000000000 2.1880000000 1.1747003444 0.0000000000 2.2149407895 1.1747003444 0.0000000000 -0.1489407895 1.1490000000 0.0000000000 -0.1220000000 1.1490000000 0.0000000000 0.2830000000 1.1490000000 0.0000000000 0.9580000000 1.1490000000 0.0000000000 1.4630000000 1.1490000000 0.0000000000 1.6830000000 1.1490000000 0.0000000000 2.1880000000 1.1490000000 0.0000000000 2.2149407895 1.1490000000 0.0000000000 -0.1489407895 0.8440000000 0.0000000000 -0.1220000000 0.8440000000 0.0000000000 0.2830000000 0.8440000000 0.0000000000 0.9580000000 0.8440000000 0.0000000000 1.4630000000 0.8440000000 0.0000000000 1.6830000000 0.8440000000 0.0000000000 2.1880000000 0.8440000000 0.0000000000 2.2149407895 0.8440000000 0.0000000000 -0.1489407895 0.6940000000 0.0000000000 -0.1220000000 0.6940000000 0.0000000000 0.2830000000 0.6940000000 0.0000000000 0.9580000000 0.6940000000 0.0000000000 1.4630000000 0.6940000000 0.0000000000 1.6830000000 0.6940000000 0.0000000000 2.1880000000 0.6940000000 0.0000000000 2.2149407895 0.6940000000 0.0000000000 -0.1489407895 0.4690000000 0.0000000000 -0.1220000000 0.4690000000 0.0000000000 0.2830000000 0.4690000000 0.0000000000 0.9580000000 0.4690000000 0.0000000000 1.4630000000 0.4690000000 0.0000000000 1.6830000000 0.4690000000 0.0000000000 2.1880000000 0.4690000000 0.0000000000 2.2149407895 0.4690000000 0.0000000000 -0.1489407895 0.3940000000 0.0000000000 -0.1220000000 0.3940000000 0.0000000000 0.2830000000 0.3940000000 0.0000000000 0.9580000000 0.3940000000 0.0000000000 1.4630000000 0.3940000000 0.0000000000 1.6830000000 0.3940000000 0.0000000000 2.1880000000 0.3940000000 0.0000000000 2.2149407895 0.3940000000 0.0000000000 -0.1489407895 0.1440000000 0.0000000000 -0.1220000000 0.1440000000 0.0000000000 0.2830000000 0.1440000000 0.0000000000 0.9580000000 0.1440000000 0.0000000000 1.4630000000 0.1440000000 0.0000000000 1.6830000000 0.1440000000 0.0000000000 2.1880000000 0.1440000000 0.0000000000 2.2149407895 0.1440000000 0.0000000000 -0.1489407895 -0.0610000000 0.0000000000 -0.1220000000 -0.0610000000 0.0000000000 0.2830000000 -0.0610000000 0.0000000000 0.9580000000 -0.0610000000 0.0000000000 1.4630000000 -0.0610000000 0.0000000000 1.6830000000 -0.0610000000 0.0000000000 2.1880000000 -0.0610000000 0.0000000000 2.2149407895 -0.0610000000 0.0000000000 -0.1489407895 -0.1019816303 0.0000000000 -0.1220000000 -0.1019816303 0.0000000000 0.2830000000 -0.1019816303 0.0000000000 0.9580000000 -0.1019816303 0.0000000000 1.4630000000 -0.1019816303 0.0000000000 1.6830000000 -0.1019816303 0.0000000000 2.1880000000 -0.1019816303 0.0000000000 2.2149407895 -0.1019816303 0.0000000000</float_array>
      <technique_common><accessor source="#positions-array" count="72" stride="3"><param name="X" type="float"/><param name="Y" type="float"/><param name="Z" type="float"/></accessor></technique_common></source>
    <source id="uv"><float_array id="uv-array" count="144">0.0000000000 1.0000000000 0.0113968440 1.0000000000 0.1776738749 1.0000000000 0.4631794272 1.0000000000 0.6747516072 1.0000000000 0.7776154296 1.0000000000 0.9886031560 1.0000000000 1.0000000000 1.0000000000 0.0000000000 0.9798694233 0.0113968440 0.9798694233 0.1776738749 0.9798694233 0.4631794272 0.9798694233 0.6747516072 0.9798694233 0.7776154296 0.9798694233 0.9886031560 0.9798694233 1.0000000000 0.9798694233 0.0000000000 0.7551686616 0.0113968440 0.7551686616 0.1776738749 0.7551686616 0.4631794272 0.7551686616 0.6747516072 0.7551686616 0.7776154296 0.7551686616 0.9886031560 0.7551686616 1.0000000000 0.7551686616 0.0000000000 0.6207834603 0.0113968440 0.6207834603 0.1776738749 0.6207834603 0.4631794272 0.6207834603 0.6747516072 0.6207834603 0.7776154296 0.6207834603 0.9886031560 0.6207834603 1.0000000000 0.6207834603 0.0000000000 0.4673558215 0.0113968440 0.4673558215 0.1776738749 0.4673558215 0.4631794272 0.4673558215 0.6747516072 0.4673558215 0.7776154296 0.4673558215 0.9886031560 0.4673558215 1.0000000000 0.4673558215 0.0000000000 0.3879216540 0.0113968440 0.3879216540 0.1776738749 0.3879216540 0.4631794272 0.3879216540 0.6747516072 0.3879216540 0.7776154296 0.3879216540 0.9886031560 0.3879216540 1.0000000000 0.3879216540 0.0000000000 0.2393906420 0.0113968440 0.2393906420 0.1776738749 0.2393906420 0.4631794272 0.2393906420 0.6747516072 0.2393906420 0.7776154296 0.2393906420 0.9886031560 0.2393906420 1.0000000000 0.2393906420 0.0000000000 0.0321001088 0.0113968440 0.0321001088 0.1776738749 0.0321001088 0.4631794272 0.0321001088 0.6747516072 0.0321001088 0.7776154296 0.0321001088 0.9886031560 0.0321001088 1.0000000000 0.0321001088 0.0000000000 0.0000000000 0.0113968440 0.0000000000 0.1776738749 0.0000000000 0.4631794272 0.0000000000 0.6747516072 0.0000000000 0.7776154296 0.0000000000 0.9886031560 0.0000000000 1.0000000000 0.0000000000</float_array>
      <technique_common><accessor source="#uv-array" count="72" stride="2"><param name="S" type="float"/><param name="T" type="float"/></accessor></technique_common></source>
    <source id="normals"><float_array id="normals-array" count="3">0 0 1</float_array>
      <technique_common><accessor source="#normals-array" count="1" stride="3"><param name="X" type="float"/><param name="Y" type="float"/><param name="Z" type="float"/></accessor></technique_common></source>
    <vertices id="vertices"><input semantic="POSITION" source="#positions"/></vertices>
    <triangles material="course_material" count="112"><input semantic="VERTEX" source="#vertices" offset="0"/><input semantic="TEXCOORD" source="#uv" offset="1" set="0"/><input semantic="NORMAL" source="#normals" offset="2"/><p>0 0 0 9 9 0 1 1 0 0 0 0 8 8 0 9 9 0 1 1 0 10 10 0 2 2 0 1 1 0 9 9 0 10 10 0 2 2 0 11 11 0 3 3 0 2 2 0 10 10 0 11 11 0 3 3 0 12 12 0 4 4 0 3 3 0 11 11 0 12 12 0 4 4 0 13 13 0 5 5 0 4 4 0 12 12 0 13 13 0 5 5 0 14 14 0 6 6 0 5 5 0 13 13 0 14 14 0 6 6 0 15 15 0 7 7 0 6 6 0 14 14 0 15 15 0 8 8 0 17 17 0 9 9 0 8 8 0 16 16 0 17 17 0 9 9 0 18 18 0 10 10 0 9 9 0 17 17 0 18 18 0 10 10 0 19 19 0 11 11 0 10 10 0 18 18 0 19 19 0 11 11 0 20 20 0 12 12 0 11 11 0 19 19 0 20 20 0 12 12 0 21 21 0 13 13 0 12 12 0 20 20 0 21 21 0 13 13 0 22 22 0 14 14 0 13 13 0 21 21 0 22 22 0 14 14 0 23 23 0 15 15 0 14 14 0 22 22 0 23 23 0 16 16 0 25 25 0 17 17 0 16 16 0 24 24 0 25 25 0 17 17 0 26 26 0 18 18 0 17 17 0 25 25 0 26 26 0 18 18 0 27 27 0 19 19 0 18 18 0 26 26 0 27 27 0 19 19 0 28 28 0 20 20 0 19 19 0 27 27 0 28 28 0 20 20 0 29 29 0 21 21 0 20 20 0 28 28 0 29 29 0 21 21 0 30 30 0 22 22 0 21 21 0 29 29 0 30 30 0 22 22 0 31 31 0 23 23 0 22 22 0 30 30 0 31 31 0 24 24 0 33 33 0 25 25 0 24 24 0 32 32 0 33 33 0 25 25 0 34 34 0 26 26 0 25 25 0 33 33 0 34 34 0 26 26 0 35 35 0 27 27 0 26 26 0 34 34 0 35 35 0 27 27 0 36 36 0 28 28 0 27 27 0 35 35 0 36 36 0 28 28 0 37 37 0 29 29 0 28 28 0 36 36 0 37 37 0 29 29 0 38 38 0 30 30 0 29 29 0 37 37 0 38 38 0 30 30 0 39 39 0 31 31 0 30 30 0 38 38 0 39 39 0 32 32 0 41 41 0 33 33 0 32 32 0 40 40 0 41 41 0 33 33 0 42 42 0 34 34 0 33 33 0 41 41 0 42 42 0 34 34 0 43 43 0 35 35 0 34 34 0 42 42 0 43 43 0 35 35 0 44 44 0 36 36 0 35 35 0 43 43 0 44 44 0 36 36 0 45 45 0 37 37 0 36 36 0 44 44 0 45 45 0 37 37 0 46 46 0 38 38 0 37 37 0 45 45 0 46 46 0 38 38 0 47 47 0 39 39 0 38 38 0 46 46 0 47 47 0 40 40 0 49 49 0 41 41 0 40 40 0 48 48 0 49 49 0 41 41 0 50 50 0 42 42 0 41 41 0 49 49 0 50 50 0 42 42 0 51 51 0 43 43 0 42 42 0 50 50 0 51 51 0 43 43 0 52 52 0 44 44 0 43 43 0 51 51 0 52 52 0 44 44 0 53 53 0 45 45 0 44 44 0 52 52 0 53 53 0 45 45 0 54 54 0 46 46 0 45 45 0 53 53 0 54 54 0 46 46 0 55 55 0 47 47 0 46 46 0 54 54 0 55 55 0 48 48 0 57 57 0 49 49 0 48 48 0 56 56 0 57 57 0 49 49 0 58 58 0 50 50 0 49 49 0 57 57 0 58 58 0 50 50 0 59 59 0 51 51 0 50 50 0 58 58 0 59 59 0 51 51 0 60 60 0 52 52 0 51 51 0 59 59 0 60 60 0 52 52 0 61 61 0 53 53 0 52 52 0 60 60 0 61 61 0 53 53 0 62 62 0 54 54 0 53 53 0 61 61 0 62 62 0 54 54 0 63 63 0 55 55 0 54 54 0 62 62 0 63 63 0 56 56 0 65 65 0 57 57 0 56 56 0 64 64 0 65 65 0 57 57 0 66 66 0 58 58 0 57 57 0 65 65 0 66 66 0 58 58 0 67 67 0 59 59 0 58 58 0 66 66 0 67 67 0 59 59 0 68 68 0 60 60 0 59 59 0 67 67 0 68 68 0 60 60 0 69 69 0 61 61 0 60 60 0 68 68 0 69 69 0 61 61 0 70 70 0 62 62 0 61 61 0 69 69 0 70 70 0 62 62 0 71 71 0 63 63 0 62 62 0 70 70 0 71 71 0</p></triangles>
  </mesh></geometry></library_geometries>
  <library_visual_scenes><visual_scene id="scene"><node id="ground"><instance_geometry url="#course"><bind_material><technique_common><instance_material symbol="course_material" target="#course_material"><bind_vertex_input semantic="UVMap" input_semantic="TEXCOORD" input_set="0"/></instance_material></technique_common></bind_material></instance_geometry></node></visual_scene></library_visual_scenes>
  <scene><instance_visual_scene url="#scene"/></scene>
</COLLADA>
